<svg xmlns="http://www.w3.org/2000/svg" width="60" height="38" viewBox="0 0 60 38" version="1.1"><g stroke="none" stroke-width="1" fill="none" fill-rule="evenodd"><g transform="translate(-300.000000, -355.000000)" fill="#FFFFFF"><g transform="translate(0.000000, 70.000000)"><g transform="translate(57.000000, 47.000000)"><g transform="translate(185.000000, 0.000000)"><g transform="translate(0.000000, 185.000000)"><path d="M58 53L65.5 53 65.5 90.5 58 90.5 58 53ZM69.3 53L73 53 73 90.5 69.3 90.5 69.3 53ZM76.8 53L80.5 53 80.5 90.5 76.8 90.5 76.8 53ZM88 53L91.8 53 91.8 90.5 88 90.5 88 53ZM103 53L106.8 53 106.8 90.5 103 90.5 103 53ZM114.3 53L118 53 118 90.5 114.3 90.5 114.3 53ZM95.5 53L97.4 53 97.4 90.5 95.5 90.5 95.5 53ZM84.3 53L86.1 53 86.1 90.5 84.3 90.5 84.3 53ZM108.6 53L110.5 53 110.5 90.5 108.6 90.5 108.6 53Z"/></g></g></g></g></g></g></svg>