<svg xmlns="http://www.w3.org/2000/svg" width="55" height="63" viewBox="0 0 55 63" version="1.1"><g stroke="none" stroke-width="1" fill="none" fill-rule="evenodd"><g transform="translate(-302.000000, -898.000000)" fill="#FFFFFF"><g transform="translate(0.000000, 70.000000)"><g transform="translate(57.000000, 47.000000)"><g transform="translate(185.000000, 0.000000)"><g transform="translate(0.000000, 740.000000)"><g transform="translate(60.000000, 41.000000)"><path d="M51.3 59.7L37.7 59.7 37.7 19.5 52 19.5 52 59C52 59.4 51.7 59.7 51.3 59.7ZM3 59L3 41.1 17.3 41.1 17.3 59.7 3.7 59.7C3.3 59.7 3 59.4 3 59ZM3 38.1L17.3 38.1 17.3 19.5 3 19.5 3 38.1ZM20.3 38.1L34.7 38.1 34.7 19.5 20.3 19.5 20.3 38.1ZM20.3 59.7L34.7 59.7 34.7 41.1 20.3 41.1 20.3 59.7ZM3.7 3L51.3 3C51.7 3 52 3.3 52 3.7L52 16.6 3 16.6 3 3.7C3 3.3 3.3 3 3.7 3ZM51.3 0L3.7 0C1.7 0 0 1.7 0 3.7L0 59C0 61 1.7 62.7 3.7 62.7L51.3 62.7C53.3 62.7 55 61 55 59L55 3.7C55 1.7 53.3 0 51.3 0L51.3 0ZM13.9 27.9L11.7 27.9 11.7 25.8C11.7 25 11 24.3 10.2 24.3 9.4 24.3 8.8 25 8.8 25.8L8.8 27.9 6.6 27.9C5.8 27.9 5.1 28.6 5.1 29.4 5.1 30.2 5.8 30.9 6.6 30.9L8.8 30.9 8.8 33.1C8.8 33.9 9.4 34.5 10.2 34.5 11 34.5 11.7 33.9 11.7 33.1L11.7 30.9 13.9 30.9C14.7 30.9 15.3 30.2 15.3 29.4 15.3 28.6 14.7 27.9 13.9 27.9M23.2 30.7L30.5 30.7C31.3 30.7 32 30.1 32 29.4 32 28.7 31.3 28.1 30.5 28.1L23.2 28.1C22.4 28.1 21.7 28.7 21.7 29.4 21.7 30.1 22.4 30.7 23.2 30.7M13 50.5L14.9 48.7C15.5 48.1 15.5 47.1 14.9 46.5 14.3 45.9 13.3 45.9 12.7 46.5L10.9 48.3 9 46.5C8.4 45.9 7.4 45.9 6.8 46.5 6.2 47.1 6.2 48.1 6.8 48.7L8.7 50.5 6.8 52.4C6.2 53 6.2 53.9 6.8 54.5 7.1 54.8 7.5 55 7.9 55 8.3 55 8.7 54.8 9 54.5L10.9 52.7 12.7 54.5C13 54.8 13.4 55 13.8 55 14.2 55 14.6 54.8 14.9 54.5 15.5 53.9 15.5 53 14.9 52.4L13 50.5M23.5 54.5C23.8 54.8 24.2 55 24.6 55 25 55 25.3 54.8 25.6 54.5L31.5 48.7C32.1 48.1 32.1 47.1 31.5 46.5 30.9 45.9 30 45.9 29.4 46.5L23.5 52.4C22.9 53 22.9 53.9 23.5 54.5M24.3 46C25 46 25.6 46.6 25.6 47.3 25.6 48 25 48.6 24.3 48.6 23.6 48.6 23 48 23 47.3 23 46.6 23.6 46 24.3 46M30.7 52.4C31.4 52.4 32 53 32 53.7 32 54.4 31.4 55 30.7 55 30 55 29.4 54.4 29.4 53.7 29.4 53 30 52.4 30.7 52.4M48.4 35.8L41.1 35.8C40.3 35.8 39.6 36.4 39.6 37.1 39.6 37.8 40.3 38.4 41.1 38.4L48.4 38.4C49.2 38.4 49.9 37.8 49.9 37.1 49.9 36.4 49.2 35.8 48.4 35.8M48.4 40.9L41.1 40.9C40.3 40.9 39.6 41.5 39.6 42.2 39.6 42.9 40.3 43.5 41.1 43.5L48.4 43.5C49.2 43.5 49.9 42.9 49.9 42.2 49.9 41.5 49.2 40.9 48.4 40.9"/></g></g></g></g></g></g></g></svg>