<svg xmlns="http://www.w3.org/2000/svg" width="55" height="52" viewBox="0 0 55 52" version="1.1"><g stroke="none" stroke-width="1" fill="none" fill-rule="evenodd"><g transform="translate(-117.000000, -154.000000)" fill="#FFFFFF"><g transform="translate(0.000000, 70.000000)"><g transform="translate(57.000000, 47.000000)"><path d="M109.8 40.4L87.5 40.4 85.8 37 66.9 37 63.4 43.9 111.6 43.9 109.8 40.4ZM108.6 71.4C108.6 71.1 108.7 70.8 108.7 70.5 108.8 70.2 108.8 70 108.9 69.7 108.9 69.4 108.9 69.1 109 68.8 109 68.5 109 68.2 109 67.9 109 65.9 108.6 64 107.8 62.3 107.1 60.5 106 58.9 104.7 57.6 103.4 56.3 101.8 55.3 100.1 54.5 98.3 53.7 96.4 53.3 94.4 53.3 92.4 53.3 90.5 53.7 88.7 54.5 86.9 55.3 85.4 56.3 84.1 57.6 82.7 58.9 81.7 60.5 80.9 62.3 80.1 64 79.8 65.9 79.8 67.9 79.8 69.5 80 71 80.5 72.5 81 73.9 81.6 75.2 82.5 76.4 83.3 77.6 84.4 78.7 85.5 79.6 86.7 80.5 88 81.2 89.4 81.7L63.4 81.7 60 47.3 115 47.3 112.6 71.4 108.6 71.4ZM113.9 82.6L113.9 82.6C114.2 83 114.5 83.3 114.7 83.7 114.9 84.1 115 84.5 115 84.9 115 85.4 114.9 85.8 114.8 86.2 114.6 86.6 114.4 87 114 87.3L113.8 87.6C113.4 87.9 113 88.2 112.6 88.3 112.2 88.5 111.8 88.6 111.4 88.6 110.9 88.5 110.5 88.4 110.1 88.2 109.7 88.1 109.4 87.8 109.1 87.4L99.7 76.8C99.3 77 98.9 77.2 98.5 77.4 98 77.6 97.6 77.7 97.2 77.9 96.7 78 96.3 78.1 95.8 78.2 95.3 78.2 94.9 78.2 94.4 78.2 92.9 78.2 91.6 78 90.4 77.4 89.1 76.9 88 76.2 87.1 75.2 86.1 74.3 85.4 73.2 84.9 71.9 84.3 70.7 84.1 69.4 84.1 67.9 84.1 66.5 84.3 65.2 84.9 63.9 85.4 62.7 86.1 61.6 87.1 60.6 88 59.7 89.1 59 90.4 58.4 91.6 57.9 92.9 57.6 94.4 57.6 95.8 57.6 97.1 57.9 98.4 58.4 99.6 59 100.7 59.7 101.7 60.6 102.6 61.6 103.3 62.7 103.9 63.9 104.4 65.2 104.7 66.5 104.7 67.9 104.7 68.4 104.7 68.9 104.6 69.4 104.5 69.8 104.4 70.3 104.3 70.8 104.2 71.2 104 71.6 103.8 72 103.6 72.5 103.4 72.9 103.2 73.3L113.9 82.6ZM94.4 74.6C95.3 74.6 96.1 74.4 97 74.1 97.8 73.7 98.5 73.2 99.1 72.6 99.7 72 100.2 71.3 100.5 70.5 100.9 69.7 101 68.8 101 67.9 101 67 100.9 66.2 100.5 65.3 100.2 64.5 99.7 63.8 99.1 63.2 98.5 62.6 97.8 62.1 97 61.8 96.1 61.4 95.3 61.3 94.4 61.3 93.5 61.3 92.6 61.4 91.8 61.8 91 62.1 90.3 62.6 89.7 63.2 89.1 63.8 88.6 64.5 88.2 65.3 87.9 66.2 87.7 67 87.7 67.9 87.7 68.8 87.9 69.7 88.2 70.5 88.6 71.3 89.1 72 89.7 72.6 90.3 73.2 91 73.7 91.8 74.1 92.6 74.4 93.5 74.6 94.4 74.6Z"/></g></g></g></g></svg>