<svg xmlns="http://www.w3.org/2000/svg" width="36" height="57" viewBox="0 0 36 57" version="1.1"><g stroke="none" stroke-width="1" fill="none" fill-rule="evenodd"><g transform="translate(-129.000000, -714.000000)" fill="#FFFFFF"><g transform="translate(0.000000, 70.000000)"><g transform="translate(57.000000, 47.000000)"><g transform="translate(0.000000, 555.000000)"><path d="M90 42.5C92.4 42.5 94.7 43 96.8 43.9 98.9 44.8 100.8 46 102.4 47.6 104 49.2 105.2 51.1 106.1 53.2 107 55.3 107.5 57.6 107.5 60 107.5 64.4 106.6 68.8 104.8 73.4 102.9 78 100.9 82.1 98.8 85.8 96.6 89.5 94.6 92.6 92.7 94.9L90 98.5 87.3 94.9C85.4 92.6 83.4 89.5 81.3 85.8 79.1 82.1 77.1 78 75.2 73.4 73.4 68.8 72.5 64.4 72.5 60 72.5 57.6 73 55.3 73.9 53.2 74.8 51.1 76 49.2 77.6 47.6 79.2 46 81.1 44.8 83.2 43.9 85.3 43 87.6 42.5 90 42.5ZM90 70.5C91.5 70.5 92.8 70.2 94.1 69.7 95.4 69.1 96.5 68.4 97.4 67.4 98.4 66.5 99.1 65.4 99.7 64.1 100.2 62.8 100.5 61.5 100.5 60 100.5 58.5 100.2 57.2 99.7 55.9 99.1 54.6 98.4 53.5 97.4 52.6 96.5 51.6 95.4 50.9 94.1 50.3 92.8 49.8 91.5 49.5 90 49.5 88.5 49.5 87.2 49.8 85.9 50.3 84.6 50.9 83.5 51.6 82.6 52.6 81.6 53.5 80.9 54.6 80.3 55.9 79.8 57.2 79.5 58.5 79.5 60 79.5 61.5 79.8 62.8 80.3 64.1 80.9 65.4 81.6 66.5 82.6 67.4 83.5 68.4 84.6 69.1 85.9 69.7 87.2 70.2 88.5 70.5 90 70.5Z"/></g></g></g></g></g></svg>