<svg xmlns="http://www.w3.org/2000/svg" width="60" height="47" viewBox="0 0 60 47" version="1.1"><g stroke="none" stroke-width="1" fill="none" fill-rule="evenodd"><g transform="translate(-115.000000, -348.000000)" fill="#FFFFFF"><g transform="translate(0.000000, 70.000000)"><g transform="translate(57.000000, 47.000000)"><g transform="translate(0.000000, 185.000000)"><path d="M117.6 52C117.6 52.1 117.7 52.2 117.8 52.3 117.8 52.4 117.9 52.5 117.9 52.6 117.9 52.7 117.9 52.8 118 52.9 118 53 118 53.1 118 53.2L118 90.7C118 90.9 118 91.1 117.9 91.3 117.9 91.5 117.8 91.6 117.6 91.8 117.5 91.9 117.4 92.1 117.3 92.2 117.1 92.3 116.9 92.4 116.7 92.5 116.6 92.5 116.4 92.6 116.2 92.6 116 92.6 115.8 92.6 115.6 92.5 115.4 92.4 115.3 92.4 115.1 92.3 114.9 92.2 114.8 92 114.7 91.9 114.1 91.2 113.4 90.5 112.6 89.9 111.7 89.4 110.8 88.9 109.8 88.5 108.8 88.1 107.7 87.8 106.6 87.6 105.4 87.4 104.2 87.2 103 87.2 101.8 87.2 100.6 87.4 99.4 87.6 98.3 87.8 97.2 88.1 96.2 88.5 95.2 88.9 94.3 89.4 93.4 89.9 92.6 90.5 91.9 91.2 91.3 91.9 91.2 92 91.1 92.1 91 92.2 90.9 92.2 90.8 92.3 90.7 92.4 90.5 92.4 90.4 92.5 90.3 92.5 90.1 92.6 90 92.6 89.9 92.6L86.1 92.6C86 92.6 85.9 92.6 85.7 92.5 85.6 92.5 85.4 92.4 85.3 92.4 85.2 92.3 85.1 92.2 85 92.2 84.9 92.1 84.8 92 84.7 91.9 84.1 91.2 83.4 90.5 82.6 89.9 81.7 89.4 80.8 88.9 79.8 88.5 78.8 88.1 77.7 87.8 76.6 87.6 75.4 87.4 74.2 87.2 73 87.2 71.8 87.2 70.6 87.4 69.4 87.6 68.3 87.8 67.2 88.1 66.2 88.5 65.2 88.9 64.3 89.4 63.4 89.9 62.6 90.5 61.9 91.2 61.3 91.9 61.2 92 61.1 92.2 60.9 92.3 60.7 92.4 60.6 92.4 60.4 92.5 60.2 92.6 60 92.6 59.8 92.6 59.6 92.6 59.4 92.5 59.3 92.5 59.1 92.4 58.9 92.3 58.7 92.2 58.6 92.1 58.4 91.9 58.4 91.8 58.2 91.6 58.1 91.5 58.1 91.3 58 91.1 58 90.9 58 90.7L58 53.2C58 53.1 58 53 58 52.9 58 52.8 58.1 52.7 58.1 52.6 58.1 52.5 58.2 52.4 58.2 52.3 58.3 52.2 58.4 52.1 58.4 52 59.2 51.1 60.1 50.3 61.1 49.5 62.2 48.8 63.3 48.1 64.6 47.6 65.8 47.1 67.2 46.7 68.6 46.4 70 46.1 71.5 46 73 46 74.5 46 76 46.1 77.4 46.4 78.8 46.7 80.2 47.1 81.4 47.6 82.7 48.1 83.8 48.8 84.9 49.5 85.9 50.3 86.8 51.1 87.6 52 87.6 52.1 87.7 52.2 87.8 52.3 87.8 52.4 87.9 52.5 87.9 52.6 87.9 52.7 87.9 52.8 88 52.9 88 53 88 53.1 88 53.2 88 53.1 88 53 88 52.9 88 52.8 88.1 52.7 88.1 52.6 88.1 52.5 88.2 52.4 88.2 52.3 88.3 52.2 88.4 52.1 88.4 52 89.2 51.1 90.1 50.3 91.1 49.5 92.2 48.8 93.3 48.1 94.6 47.6 95.8 47.1 97.2 46.7 98.6 46.4 100 46.1 101.5 46 103 46 104.5 46 106 46.1 107.4 46.4 108.8 46.7 110.2 47.1 111.4 47.6 112.7 48.1 113.8 48.8 114.9 49.5 115.9 50.3 116.8 51.1 117.6 52ZM84.2 86.6L84.2 53.9C83.6 53.2 82.9 52.7 82.1 52.2 81.3 51.6 80.4 51.2 79.4 50.9 78.5 50.5 77.5 50.2 76.4 50 75.3 49.8 74.2 49.7 73 49.7 71.8 49.7 70.7 49.8 69.6 50 68.5 50.2 67.5 50.5 66.6 50.9 65.6 51.2 64.7 51.6 63.9 52.2 63.1 52.7 62.4 53.2 61.7 53.9L61.7 86.6C62.5 86.1 63.3 85.7 64.2 85.3 65.1 84.9 66 84.6 66.9 84.3 67.9 84 68.9 83.8 69.9 83.7 70.9 83.6 71.9 83.5 73 83.5 74.1 83.5 75.1 83.6 76.1 83.7 77.1 83.8 78.1 84 79.1 84.3 80 84.6 80.9 84.9 81.8 85.3 82.7 85.7 83.5 86.1 84.2 86.6ZM114.2 86.6L114.2 53.9C113.6 53.2 112.9 52.7 112.1 52.2 111.3 51.6 110.4 51.2 109.4 50.9 108.5 50.5 107.5 50.2 106.4 50 105.3 49.8 104.2 49.7 103 49.7 101.8 49.7 100.7 49.8 99.6 50 98.5 50.2 97.5 50.5 96.6 50.9 95.6 51.2 94.7 51.6 93.9 52.2 93.1 52.7 92.4 53.2 91.7 53.9L91.7 86.6C92.5 86.1 93.3 85.7 94.2 85.3 95.1 84.9 96 84.6 96.9 84.3 97.9 84 98.9 83.8 99.9 83.7 100.9 83.6 101.9 83.5 103 83.5 104.1 83.5 105.1 83.6 106.1 83.7 107.1 83.8 108.1 84 109.1 84.3 110 84.6 110.9 84.9 111.8 85.3 112.7 85.7 113.5 86.1 114.2 86.6ZM95.5 61L95.5 57.2 110.5 57.2 110.5 61 95.5 61ZM95.5 68.5L95.5 64.7 110.5 64.7 110.5 68.5 95.5 68.5ZM95.5 76L95.5 72.2 106.7 72.2 106.7 76 95.5 76ZM65.5 61L65.5 57.2 80.5 57.2 80.5 61 65.5 61ZM65.5 68.5L65.5 64.7 80.5 64.7 80.5 68.5 65.5 68.5ZM65.5 76L65.5 72.2 76.7 72.2 76.7 76 65.5 76Z"/></g></g></g></g></g></svg>