<svg xmlns="http://www.w3.org/2000/svg" width="55" height="55" viewBox="0 0 55 55" version="1.1"><g stroke="none" stroke-width="1" fill="none" fill-rule="evenodd"><g transform="translate(-118.000000, -896.000000)" fill="#FFFFFF"><g transform="translate(0.000000, 70.000000)"><g transform="translate(57.000000, 47.000000)"><g transform="translate(0.000000, 740.000000)"><path d="M114.9 82.9L90.1 61.7C90.4 61.2 90.7 60.6 90.9 60 91.1 59.5 91.3 58.9 91.5 58.3 91.6 57.7 91.7 57.1 91.8 56.4 91.9 55.8 91.9 55.1 91.9 54.5 91.9 52.3 91.5 50.3 90.7 48.5 89.9 46.6 88.8 44.9 87.4 43.5 86 42.1 84.4 41 82.5 40.2 80.6 39.4 78.6 39 76.5 39 76.1 39 75.7 39 75.3 39 74.9 39.1 74.5 39.1 74.2 39.2 73.8 39.2 73.4 39.3 73.1 39.4 72.7 39.5 72.3 39.6 72 39.7L80.9 48.6C81.2 48.9 81.5 49.3 81.7 49.7 81.8 50.1 81.9 50.6 81.9 51 81.9 51.5 81.8 51.9 81.7 52.3 81.5 52.8 81.2 53.1 80.9 53.5L75.5 58.9C75.1 59.2 74.8 59.5 74.3 59.7 73.9 59.8 73.5 59.9 73 59.9 72.6 59.9 72.1 59.8 71.7 59.7 71.3 59.5 70.9 59.2 70.6 58.9L61.7 50C61.6 50.3 61.5 50.7 61.4 51.1 61.3 51.4 61.2 51.8 61.2 52.2 61.1 52.5 61.1 52.9 61 53.3 61 53.7 61 54.1 61 54.5 61 56.6 61.4 58.6 62.2 60.5 63 62.4 64.1 64 65.5 65.4 66.9 66.8 68.6 67.9 70.5 68.7 72.3 69.5 74.3 69.9 76.5 69.9 77.1 69.9 77.8 69.9 78.4 69.8 79.1 69.7 79.7 69.6 80.3 69.5 80.9 69.3 81.5 69.1 82 68.9 82.6 68.7 83.2 68.4 83.7 68.1L104.9 92.9C105.2 93.2 105.6 93.5 106 93.7 106.4 93.9 106.8 94 107.2 94 107.6 94 108.1 93.9 108.5 93.8 108.9 93.6 109.3 93.4 109.6 93.1L115.1 87.6C115.4 87.3 115.6 86.9 115.8 86.5 115.9 86.1 116 85.6 116 85.2 116 84.8 115.9 84.4 115.7 84 115.5 83.6 115.2 83.2 114.9 82.9Z"/></g></g></g></g></g></svg>