<svg xmlns="http://www.w3.org/2000/svg" width="60" height="54" viewBox="0 0 60 54" version="1.1"><g stroke="none" stroke-width="1" fill="none" fill-rule="evenodd"><g transform="translate(-300.000000, -524.000000)" fill="#FFFFFF"><g transform="translate(0.000000, 70.000000)"><g transform="translate(57.000000, 47.000000)"><g transform="translate(185.000000, 0.000000)"><g transform="translate(0.000000, 370.000000)"><path d="M98 77.1C100.8 77.4 103.5 77.9 105.9 78.7 108.3 79.4 110.5 80.4 112.2 81.6 114 82.7 115.4 84.1 116.5 85.6 117.5 87.1 118 88.6 118 90.3L71.3 90.3C71.3 88.6 71.8 87.1 72.9 85.6 73.9 84.1 75.3 82.7 77.1 81.6 78.9 80.4 81 79.4 83.4 78.7 85.9 77.9 88.5 77.4 91.3 77.1L91.3 74.4C90.4 73.9 89.5 73.2 88.7 72.3 87.9 71.4 87.2 70.4 86.6 69.3 86 68.2 85.5 67.1 85.2 65.8 84.8 64.6 84.7 63.3 84.7 62 84.7 59.9 84.7 58 84.8 56.2 84.9 54.3 85.3 52.8 85.9 51.4 86.5 50 87.5 49 88.9 48.2 90.2 47.4 92.2 47 94.7 47 97.2 47 99.1 47.4 100.4 48.2 101.8 49 102.8 50 103.4 51.4 104 52.8 104.4 54.3 104.5 56.2 104.6 58 104.7 59.9 104.7 62 104.7 63.3 104.5 64.6 104.1 65.8 103.8 67.1 103.3 68.2 102.7 69.3 102.1 70.4 101.4 71.4 100.6 72.3 99.8 73.2 98.9 73.9 98 74.4L98 77.1ZM75 78.4C74.8 78.6 74.6 78.7 74.4 78.9 74.1 79 73.9 79.2 73.7 79.3 73.5 79.5 73.3 79.7 73.1 79.8 72.9 80 72.7 80.2 72.5 80.3L58 80.3C58 78.6 58.5 77.1 59.5 75.6 60.6 74.1 62 72.7 63.8 71.6 65.5 70.4 67.7 69.4 70.1 68.7 72.5 67.9 75.2 67.4 78 67.1L78 64.4C77.1 63.9 76.2 63.2 75.4 62.3 74.6 61.4 73.9 60.4 73.3 59.3 72.7 58.2 72.2 57.1 71.9 55.8 71.5 54.6 71.3 53.3 71.3 52 71.3 49.9 71.4 48 71.5 46.2 71.6 44.3 72 42.8 72.6 41.4 73.2 40 74.2 39 75.6 38.2 76.9 37.4 78.8 37 81.3 37 82.9 37 84.2 37.2 85.3 37.5 86.4 37.8 87.3 38.2 88.1 38.8 88.8 39.4 89.4 40.1 89.8 40.9 90.3 41.7 90.6 42.6 90.8 43.6 89.8 43.8 88.9 44.1 88.1 44.4 87.2 44.8 86.5 45.2 85.8 45.7 85.1 46.3 84.4 46.9 83.9 47.5 83.3 48.2 82.9 49 82.5 49.8 82.1 50.7 81.8 51.6 81.6 52.5 81.4 53.5 81.2 54.5 81.1 55.5 81 56.6 81 57.6 80.9 58.7 80.9 59.8 80.9 60.9 80.9 62 80.9 62.8 81 63.6 81.1 64.3 81.2 65.1 81.3 65.9 81.5 66.7 81.7 67.4 82 68.2 82.3 69 82.6 69.7 82.9 70.4 83.3 71.2 83.5 71.4 83.7 71.7 83.8 72 84 72.3 84.2 72.5 84.3 72.8 84.5 73 84.7 73.3 84.9 73.5L85.4 74.2C84.5 74.4 83.5 74.7 82.6 75 81.6 75.3 80.7 75.6 79.8 76 79 76.3 78.1 76.7 77.3 77.1 76.5 77.5 75.8 78 75 78.4Z"/></g></g></g></g></g></g></svg>