<svg xmlns="http://www.w3.org/2000/svg" width="55" height="45" viewBox="0 0 55 45" version="1.1"><g stroke="none" stroke-width="1" fill="none" fill-rule="evenodd"><g transform="translate(-302.000000, -159.000000)" fill="#FFFFFF"><g transform="translate(0.000000, 70.000000)"><g transform="translate(57.000000, 47.000000)"><g transform="translate(185.000000, 0.000000)"><path d="M115 66.1L115 76.4 110.7 76.4C110.8 76.6 110.9 76.9 111 77.2 111.2 77.4 111.3 77.7 111.3 78 111.4 78.3 111.5 78.6 111.5 78.9 111.5 79.2 111.6 79.5 111.6 79.8 111.6 80.8 111.4 81.7 111 82.5 110.7 83.3 110.2 84 109.6 84.7 108.9 85.3 108.2 85.8 107.4 86.2 106.5 86.5 105.6 86.7 104.7 86.7 103.7 86.7 102.9 86.5 102 86.2 101.2 85.8 100.5 85.3 99.8 84.7 99.2 84 98.7 83.3 98.4 82.5 98 81.7 97.8 80.8 97.8 79.8 97.8 79.5 97.8 79.2 97.9 78.9 97.9 78.6 98 78.3 98.1 78 98.1 77.7 98.2 77.4 98.3 77.2 98.5 76.9 98.6 76.6 98.7 76.4L79.7 76.4C79.9 76.6 80 76.9 80.1 77.2 80.2 77.4 80.3 77.7 80.4 78 80.5 78.3 80.5 78.6 80.6 78.9 80.6 79.2 80.6 79.5 80.6 79.8 80.6 80.8 80.4 81.7 80.1 82.5 79.7 83.3 79.2 84 78.6 84.7 78 85.3 77.3 85.8 76.4 86.2 75.6 86.5 74.7 86.7 73.8 86.7 72.8 86.7 71.9 86.5 71.1 86.2 70.2 85.8 69.5 85.3 68.9 84.7 68.3 84 67.8 83.3 67.4 82.5 67.1 81.7 66.9 80.8 66.9 79.8 66.9 79.5 66.9 79.2 66.9 78.9 67 78.6 67 78.3 67.1 78 67.2 77.7 67.3 77.4 67.4 77.2 67.5 76.9 67.6 76.6 67.8 76.4L63.4 76.4 60 72.9 60 45.4C60 45 60.1 44.5 60.3 44.1 60.4 43.7 60.7 43.3 61 43 61.3 42.7 61.7 42.4 62.1 42.3 62.5 42.1 63 42 63.4 42L94.4 42C94.8 42 95.3 42.1 95.7 42.3 96.1 42.4 96.5 42.7 96.8 43 97.1 43.3 97.4 43.7 97.5 44.1 97.7 44.5 97.8 45 97.8 45.4L97.8 52.3 108.1 52.3 115 66.1ZM97.8 66.1L110.1 66.1 104.9 55.8 97.8 55.8 97.8 66.1Z"/></g></g></g></g></g></svg>